HIERARCHY
ROOT Hips
{
    OFFSET   0.000000   0.000000   0.000000
    CHANNELS 6 Xposition Yposition Zposition Zrotation Xrotation Yrotation
    JOINT Chest
    {
        OFFSET   0.000000   8.007230   0.000000
        CHANNELS 3 Zrotation Xrotation Yrotation
        JOINT Chest2
        {
            OFFSET   0.000000  22.077100   0.000000
            CHANNELS 3 Zrotation Xrotation Yrotation
            JOINT Neck
            {
                OFFSET   0.000000  23.254800  -0.000021
                CHANNELS 3 Zrotation Xrotation Yrotation
                JOINT Head
                {
                    OFFSET   0.000000  14.370000   1.956610
                    CHANNELS 3 Zrotation Xrotation Yrotation
                    End Site
                    {
                        OFFSET   0.000000  19.566000   0.000000
                    }
                }
            }
            JOINT LeftCollar
            {
                OFFSET   3.911900  19.017000  -0.467063
                CHANNELS 3 Zrotation Xrotation Yrotation
                JOINT LeftShoulder
                {
                    OFFSET  10.383700   0.000000   0.000000
                    CHANNELS 3 Zrotation Xrotation Yrotation
                    JOINT LeftElbow
                    {
                        OFFSET  26.662100   0.001529   0.000325
                        CHANNELS 3 Zrotation Xrotation Yrotation
                        JOINT LeftWrist
                        {
                            OFFSET  28.869000  -0.000011  -0.000096
                            CHANNELS 3 Zrotation Xrotation Yrotation
                            JOINT LeftFinger0
                            {
                                OFFSET   2.044650  -2.323460   3.252850
                                CHANNELS 3 Zrotation Xrotation Yrotation
                                JOINT LeftFinger01
                                {
                                    OFFSET   3.088130   0.000000   0.000000
                                    CHANNELS 3 Zrotation Xrotation Yrotation
                                    JOINT LeftFinger02
                                    {
                                        OFFSET   2.639460   0.000000   0.000000
                                        CHANNELS 3 Zrotation Xrotation Yrotation
                                        End Site
                                        {
                                            OFFSET   2.582190   0.000000   0.000000
                                        }
                                    }
                                }
                            }
                            JOINT LeftFinger1
                            {
                                OFFSET   8.364480   0.000000   3.252850
                                CHANNELS 3 Zrotation Xrotation Yrotation
                                JOINT LeftFinger11
                                {
                                    OFFSET   4.646930   0.000000   0.000000
                                    CHANNELS 3 Zrotation Xrotation Yrotation
                                    JOINT LeftFinger12
                                    {
                                        OFFSET   2.323460   0.000000   0.000000
                                        CHANNELS 3 Zrotation Xrotation Yrotation
                                        End Site
                                        {
                                            OFFSET   2.273050   0.000000   0.000000
                                        }
                                    }
                                }
                            }
                            JOINT LeftFinger2
                            {
                                OFFSET   8.364480   0.000016   1.078090
                                CHANNELS 3 Zrotation Xrotation Yrotation
                                JOINT LeftFinger21
                                {
                                    OFFSET   5.111620   0.000000   0.000000
                                    CHANNELS 3 Zrotation Xrotation Yrotation
                                    JOINT LeftFinger22
                                    {
                                        OFFSET   2.788160   0.000017   0.000000
                                        CHANNELS 3 Zrotation Xrotation Yrotation
                                        End Site
                                        {
                                            OFFSET   2.727660   0.000000   0.000000
                                        }
                                    }
                                }
                            }
                            JOINT LeftFinger3
                            {
                                OFFSET   7.899780   0.000015  -1.078090
                                CHANNELS 3 Zrotation Xrotation Yrotation
                                JOINT LeftFinger31
                                {
                                    OFFSET   4.646920   0.000000   0.000000
                                    CHANNELS 3 Zrotation Xrotation Yrotation
                                    JOINT LeftFinger32
                                    {
                                        OFFSET   2.323470   0.000000   0.000000
                                        CHANNELS 3 Zrotation Xrotation Yrotation
                                        End Site
                                        {
                                            OFFSET   2.273050   0.000000   0.000000
                                        }
                                    }
                                }
                            }
                            JOINT LeftFinger4
                            {
                                OFFSET   7.435090   0.000000  -3.252850
                                CHANNELS 3 Zrotation Xrotation Yrotation
                                JOINT LeftFinger41
                                {
                                    OFFSET   3.717550   0.000000   0.000000
                                    CHANNELS 3 Zrotation Xrotation Yrotation
                                    JOINT LeftFinger42
                                    {
                                        OFFSET   1.858760   0.000000   0.000000
                                        CHANNELS 3 Zrotation Xrotation Yrotation
                                        End Site
                                        {
                                            OFFSET   1.818440   0.000000   0.000000
                                        }
                                    }
                                }
                            }
                        }
                    }
                }
            }
            JOINT RightCollar
            {
                OFFSET  -3.911900  19.017000  -0.467062
                CHANNELS 3 Zrotation Xrotation Yrotation
                JOINT RightShoulder
                {
                    OFFSET -10.383700   0.000015   0.000000
                    CHANNELS 3 Zrotation Xrotation Yrotation
                    JOINT RightElbow
                    {
                        OFFSET -26.662100   0.001341   0.000385
                        CHANNELS 3 Zrotation Xrotation Yrotation
                        JOINT RightWrist
                        {
                            OFFSET -28.869000   0.000025  -0.000080
                            CHANNELS 3 Zrotation Xrotation Yrotation
                            JOINT RightFinger0
                            {
                                OFFSET  -2.044650  -2.323490   3.252850
                                CHANNELS 3 Zrotation Xrotation Yrotation
                                JOINT RightFinger01
                                {
                                    OFFSET  -3.088130   0.000000   0.000000
                                    CHANNELS 3 Zrotation Xrotation Yrotation
                                    JOINT RightFinger02
                                    {
                                        OFFSET  -2.639460   0.000000   0.000000
                                        CHANNELS 3 Zrotation Xrotation Yrotation
                                        End Site
                                        {
                                            OFFSET  -2.582190   0.000000   0.000000
                                        }
                                    }
                                }
                            }
                            JOINT RightFinger1
                            {
                                OFFSET  -8.364480   0.000000   3.252850
                                CHANNELS 3 Zrotation Xrotation Yrotation
                                JOINT RightFinger11
                                {
                                    OFFSET  -4.646930   0.000000   0.000000
                                    CHANNELS 3 Zrotation Xrotation Yrotation
                                    JOINT RightFinger12
                                    {
                                        OFFSET  -2.323470   0.000000   0.000000
                                        CHANNELS 3 Zrotation Xrotation Yrotation
                                        End Site
                                        {
                                            OFFSET  -2.273050   0.000000   0.000000
                                        }
                                    }
                                }
                            }
                            JOINT RightFinger2
                            {
                                OFFSET  -8.364480   0.000000   1.078090
                                CHANNELS 3 Zrotation Xrotation Yrotation
                                JOINT RightFinger21
                                {
                                    OFFSET  -5.111610   0.000000   0.000000
                                    CHANNELS 3 Zrotation Xrotation Yrotation
                                    JOINT RightFinger22
                                    {
                                        OFFSET  -2.788160   0.000000   0.000000
                                        CHANNELS 3 Zrotation Xrotation Yrotation
                                        End Site
                                        {
                                            OFFSET  -2.727660   0.000000   0.000000
                                        }
                                    }
                                }
                            }
                            JOINT RightFinger3
                            {
                                OFFSET  -7.899780   0.000000  -1.078090
                                CHANNELS 3 Zrotation Xrotation Yrotation
                                JOINT RightFinger31
                                {
                                    OFFSET  -4.646920   0.000000   0.000000
                                    CHANNELS 3 Zrotation Xrotation Yrotation
                                    JOINT RightFinger32
                                    {
                                        OFFSET  -2.323470   0.000000   0.000000
                                        CHANNELS 3 Zrotation Xrotation Yrotation
                                        End Site
                                        {
                                            OFFSET  -2.273050   0.000000   0.000000
                                        }
                                    }
                                }
                            }
                            JOINT RightFinger4
                            {
                                OFFSET  -7.435090   0.000000  -3.252850
                                CHANNELS 3 Zrotation Xrotation Yrotation
                                JOINT RightFinger41
                                {
                                    OFFSET  -3.717550   0.000000   0.000000
                                    CHANNELS 3 Zrotation Xrotation Yrotation
                                    JOINT RightFinger42
                                    {
                                        OFFSET  -1.858770   0.000000   0.000000
                                        CHANNELS 3 Zrotation Xrotation Yrotation
                                        End Site
                                        {
                                            OFFSET  -1.818440   0.000000   0.000000
                                        }
                                    }
                                }
                            }
                        }
                    }
                }
            }
        }
    }
    JOINT LeftHip
    {
        OFFSET   9.783010   0.000000   0.000000
        CHANNELS 3 Zrotation Xrotation Yrotation
        JOINT LeftKnee
        {
            OFFSET   0.000070 -41.789100   0.000028
            CHANNELS 3 Zrotation Xrotation Yrotation
            JOINT LeftAnkle
            {
                OFFSET   0.000087 -41.133200  -0.000100
                CHANNELS 3 Zrotation Xrotation Yrotation
                JOINT LeftToe
                {
                    OFFSET   0.000000  -6.358960  14.674500
                    CHANNELS 3 Zrotation Xrotation Yrotation
                    End Site
                    {
                        OFFSET   0.000000   0.000000   3.913200
                    }
                }
            }
        }
    }
    JOINT RightHip
    {
        OFFSET  -9.783020   0.000000   0.000000
        CHANNELS 3 Zrotation Xrotation Yrotation
        JOINT RightKnee
        {
            OFFSET   0.000044 -41.789100  -0.000870
            CHANNELS 3 Zrotation Xrotation Yrotation
            JOINT RightAnkle
            {
                OFFSET  -0.000090 -41.133200  -0.000245
                CHANNELS 3 Zrotation Xrotation Yrotation
                JOINT RightToe
                {
                    OFFSET   0.000000  -6.358960  14.674500
                    CHANNELS 3 Zrotation Xrotation Yrotation
                    End Site
                    {
                        OFFSET   0.000000   0.000000   3.913200
                    }
                }
            }
        }
    }
}
MOTION
Frames: 6
Frame Time:   0.016667
 -2.619310  89.874000  -3.112580   2.148950 -12.616100  12.351300  -2.830220   9.664920   2.312560  -6.193540  19.194200   5.225430   0.767481   0.522744  -0.005958   1.261110   1.060340   9.607500  -6.572180  -7.839020   2.943030 -60.229100  22.776700 -18.892900  -0.132760  -9.575950 -46.338200  37.978100 -47.581300  48.754600  45.219400  31.495400 -68.221700 -10.380600   0.010173   0.011903  -0.190272  -0.003022  -0.007475 -24.822000   5.230640 -11.167700 -20.731600   0.003703  -0.003468 -14.512100   0.000706   0.005439 -27.237700   0.309616  -0.617847 -28.028000   0.000000  -0.002643 -18.666700  -0.002226  -0.012231 -25.352200   0.285655  -0.661440 -25.346900  -0.003758  -0.015195 -16.881000   0.000000  -0.011216 -26.204300  -1.614990   3.213960 -39.384100  -0.003904  -0.032977 -26.229800   0.005006  -0.020451   9.315180  -0.877677  12.871100  42.623100  31.407000  47.187600 -16.321400  11.647200  52.233200 -17.808900  29.894200   2.750260 -37.621400  29.523700  70.651700  25.801100  -0.001620   0.000842   7.900580   0.000868   0.000155  29.339000  -0.570104  -1.015610  24.009400   0.004895  -0.007744  16.806600   0.007968  -0.008211  27.106900  -1.089220  -2.127030  27.509600   0.001983  -0.001841  18.321400   0.003205  -0.002526  28.026300  -1.373090  -2.577130  32.322100  -0.001253  -0.006600  21.526500   0.004249  -0.004188  40.346900  -1.894860  -2.225620  60.569700  -0.003077   0.002478  40.339400  -0.001869   0.008056   1.468270   9.866150   2.067090   1.616480   2.249830   4.963690  -7.193170  -1.383640   2.635500   0.000000   0.000000  -0.000000   2.641010  11.696900 -10.181700   0.122867   4.646960 -13.806500  -9.585380  -0.050465  -8.385370   0.000000   0.000000  -0.000000
 -2.535990  89.885800  -3.113370   1.991180 -12.680400  11.690500  -2.651420   9.658300   2.272660  -5.821130  19.189800   5.113730   0.850832   0.520560  -0.006921   1.398170   1.055130   9.896360  -6.274900  -7.763930   3.079990 -59.824800  21.626000 -19.630900   0.443198 -10.457800 -46.444000  36.956400 -45.829300  46.795100  46.083300  32.051000 -68.385300 -10.196800   0.010314   0.013172  -0.098386  -0.003579  -0.007539 -24.919600   5.429950 -11.522600 -20.842300   0.003712  -0.001027 -14.589600   0.000764   0.005413 -27.298600   0.502423  -0.984426 -28.306600   0.000000  -0.003004 -18.852200  -0.002149  -0.013103 -25.822100   0.466233  -1.007960 -25.813500  -0.004119  -0.011692 -17.191800   0.000000  -0.008343 -26.786600  -1.421680   2.763320 -40.240000   0.000596  -0.027106 -26.799800   0.007012  -0.016713   9.443390  -0.846005  12.731000  43.444000  31.564500  45.865700 -16.110500  11.890300  51.916700 -18.189000  29.780500   2.912540 -37.509300  29.447100  70.577500  25.929400  -0.001610   0.000880   7.964730   0.000870   0.000157  29.377100  -0.579248  -1.027780  24.041200   0.004898  -0.007743  16.828800   0.007970  -0.008205  27.138600  -1.125440  -2.193740  27.666000   0.001988  -0.001833  18.425600   0.003203  -0.002528  28.093000  -1.374530  -2.578430  32.810000  -0.001261  -0.006935  21.851500   0.004249  -0.004193  40.550900  -1.898000  -2.222260  60.878100  -0.002851   0.002391  40.544800  -0.001764   0.008057   1.475610  10.005400   2.146780   1.545020   2.212430   5.332880  -7.095880  -1.458320   2.825400  -0.000000   0.000000   0.000000   2.619960  11.702000 -10.117800   0.052891   4.651560 -13.728700  -9.536660  -0.062311  -7.869070  -0.000000   0.000000  -0.000000
 -2.445500  89.896400  -3.121810   1.833240 -12.738500  11.027500  -2.451670   9.659730   2.229020  -5.405400  19.202200   4.989640   0.918700   0.509266  -0.007789   1.509830   1.032750  10.179600  -6.055410  -7.709960   3.134660 -59.580100  20.355700 -20.402200   1.168720 -11.234400 -46.614800  35.830100 -44.003700  44.784500  47.003700  32.747100 -68.732200  -9.761540   0.010477   0.014653   0.119234  -0.004141  -0.007603 -24.925500   5.534730 -11.744900 -20.882400   0.003705  -0.000056 -14.617700   0.000817   0.005377 -27.330600   0.755686  -1.473580 -28.502400   0.000000  -0.007720 -18.982600  -0.002082  -0.014077 -26.260200   0.687390  -1.435660 -26.229700  -0.004445  -0.028557 -17.469000   0.000000  -0.019207 -27.370700  -1.205450   2.261140 -41.113500   0.004813  -0.038738 -27.381600   0.014034  -0.022241   9.528410  -0.858745  12.570300  44.201600  31.752600  44.536600 -15.873000  12.018100  51.551500 -18.631300  29.541300   3.117290 -37.417800  29.385700  70.388000  26.114700  -0.001616   0.000872   8.057360   0.000872   0.000155  29.366400  -0.663905  -1.178510  24.033000   0.004901  -0.007745  16.823100   0.007966  -0.008207  27.151200  -1.227540  -2.392030  27.733600   0.001982  -0.001831  18.470600   0.003203  -0.002522  28.191200  -1.369200  -2.555240  33.582500  -0.001249  -0.007213  22.366000   0.004251  -0.004187  40.705800  -1.889710  -2.198640  61.113300  -0.002626   0.002324  40.701400  -0.001661   0.008049   1.481200  10.140600   2.242740   1.472260   2.167430   5.695730  -6.998910  -1.524570   3.007900   0.000000   0.000000   0.000000   2.598250  11.703700 -10.046100  -0.014470   4.651830 -13.673300  -9.495860  -0.070517  -7.336170  -0.000000   0.000000   0.000000
 -2.351720  89.905700  -3.134710   1.676630 -12.790900  10.366900  -2.245010   9.661210   2.178410  -4.974640  19.219700   4.850280   0.984500   0.501053  -0.008711   1.617630   1.016290  10.467700  -5.856800  -7.668110   3.168820 -59.423700  19.003700 -21.248700   2.036140 -11.818900 -46.838600  34.550300 -42.062500  42.593900  48.086600  33.564100 -69.243500  -9.242630   0.010573   0.015517   0.378675  -0.004701  -0.007671 -24.901700   5.819070 -12.329800 -20.918700   0.003699   0.000586 -14.643100   0.000870   0.005338 -27.356100   1.049610  -2.040370 -28.692500   0.000000  -0.013738 -19.109200  -0.002029  -0.014579 -26.669000   0.990251  -2.008060 -26.752300  -0.004637  -0.045422 -17.817100   0.000000  -0.030071 -27.975300  -0.938811   1.684960 -42.019000   0.007286  -0.055683 -27.984700   0.022155  -0.030120   9.593380  -0.871487  12.411700  44.929500  31.939500  43.191600 -15.663700  12.125700  51.149900 -19.113800  29.257900   3.329150 -37.367800  29.380800  70.231500  26.323400  -0.001622   0.000863   8.161720   0.000874   0.000152  29.354200  -0.768779  -1.370660  24.024900   0.004902  -0.007747  16.817400   0.007963  -0.008208  27.165400  -1.337160  -2.604790  27.812100   0.001976  -0.001828  18.522900   0.003204  -0.002516  28.290800  -1.363870  -2.532050  34.395600  -0.001237  -0.007442  22.907500   0.004252  -0.004182  40.858400  -1.881410  -2.177900  61.343400  -0.002407   0.002255  40.854600  -0.001557   0.008040   1.485030  10.276600   2.347220   1.400260   2.112080   6.052580  -6.906670  -1.584390   3.185770   0.000000   0.000000  -0.000000   2.569890  11.702700  -9.979210  -0.075061   4.647210 -13.617800  -9.458630  -0.073817  -6.799120  -0.000000   0.000000  -0.000000
 -2.257650  89.915100  -3.145610   1.521280 -12.834100   9.710910  -2.044580   9.661430   2.121990  -4.555290  19.231900   4.699840   1.062360   0.501538  -0.009782   1.744760   1.016600  10.763000  -5.638080  -7.642810   3.225540 -59.353200  17.531500 -22.172900   3.020830 -12.069800 -47.210200  33.074200 -39.906500  40.143400  49.441600  34.553000 -69.992200  -8.621940   0.006290   0.008430   0.689020  -0.005293  -0.007773 -24.892600   6.730810 -14.158500 -21.016900   0.003703   0.001381 -14.711900   0.000925   0.005296 -27.391500   1.406760  -2.723430 -28.942700   0.000044  -0.015845 -19.275800  -0.002005  -0.013365 -27.036800   1.498350  -2.950850 -27.590300  -0.004668  -0.043477 -18.375200   0.000000  -0.028721 -28.612400  -0.566831   0.950546 -42.970300   0.007269  -0.065304 -28.618200   0.028231  -0.033992   9.662690  -0.865461  12.275600  45.651900  32.103200  41.824100 -15.425800  12.205800  50.698700 -19.667400  28.976300   3.512180 -37.301600  29.483000  70.252900  26.564800  -0.001620   0.000893   8.282420   0.000874   0.000150  29.434300  -0.826774  -1.467810  24.091500   0.004901  -0.007743  16.864100   0.007965  -0.008205  27.205200  -1.420260  -2.760720  28.003100   0.001979  -0.001826  18.650100   0.003202  -0.002517  28.357900  -1.441100  -2.668970  35.029500  -0.001241  -0.007646  23.329700   0.004249  -0.004187  41.051000  -1.992160  -2.290150  61.637800  -0.002194   0.002165  41.050600  -0.001451   0.008042   1.484230  10.415000   2.457950   1.332420   2.040650   6.401110  -6.824130  -1.637800   3.362130   0.000000   0.000000  -0.000000   2.526610  11.695100  -9.926120  -0.122504   4.636280 -13.545300  -9.423010  -0.073117  -6.265080  -0.000000   0.000000   0.000000
 -2.161900  89.920200  -3.155030   1.372990 -12.871800   9.068980  -1.846450   9.661150   2.054990  -4.138670  19.242500   4.528070   1.147920   0.504936  -0.011078   1.886170   1.024630  11.062200  -5.414910  -7.621060   3.301150 -59.305800  16.086000 -23.195600   4.154060 -12.048300 -47.743900  31.573900 -37.559800  37.583400  50.940600  35.571600 -70.867800  -8.245210  -0.000877   0.000000   0.877393  -0.005812  -0.007837 -24.844200   7.622570 -15.996000 -21.113800   0.003706   0.002149 -14.779700   0.000980   0.005254 -27.423500   1.762480  -3.401160 -29.192100   0.000103  -0.016291 -19.441900  -0.001985  -0.010543 -27.319700   2.009200  -3.894380 -28.500400  -0.004672  -0.036627 -18.981300   0.000000  -0.024078 -29.240000  -0.139899   0.159618 -43.907500   0.007148  -0.069611 -29.242400   0.031275  -0.035515   9.726580  -0.854293  12.155600  46.392800  32.223400  40.417500 -15.179600  12.289300  50.227800 -20.199100  28.725000   3.685910 -37.193000  29.589900  70.340000  26.787800  -0.001618   0.000925   8.393890   0.000874   0.000149  29.574700  -0.850827  -1.505260  24.206100   0.004898  -0.007739  16.944300   0.007968  -0.008202  27.256300  -1.461380  -2.836330  28.236500   0.001984  -0.001820  18.805500   0.003200  -0.002521  28.406400  -1.518310  -2.805900  35.535100  -0.001244  -0.007748  23.666400   0.004246  -0.004192  41.252000  -2.102890  -2.402420  61.944800  -0.001989   0.002073  41.255100  -0.001345   0.008044   1.478400  10.554400   2.567860   1.267860   1.961490   6.741890  -6.748570  -1.686510   3.534070   0.000000   0.000000  -0.000000   2.473710  11.689800  -9.883700  -0.162946   4.617470 -13.455100  -9.387560  -0.067729  -5.748700  -0.000000   0.000000   0.000000
